<svg width="24" height="22" viewBox="0 0 24 22" fill="none" xmlns="http://www.w3.org/2000/svg">
<path d="M11.907 2.02393C11.9364 2.00781 11.9695 1.99954 12.003 1.99993C12.0361 1.9998 12.0686 2.00805 12.0975 2.02393C12.1318 2.0445 12.1599 2.07407 12.1785 2.10943L22.464 19.6099C22.518 19.6999 22.5165 19.7959 22.467 19.8844C22.448 19.9207 22.4202 19.9517 22.386 19.9744C22.3563 19.9926 22.3218 20.0015 22.287 19.9999H1.71904C1.68422 20.0016 1.64971 19.9927 1.62004 19.9744C1.58592 19.9517 1.55807 19.9207 1.53904 19.8844C1.51432 19.8428 1.50153 19.7952 1.50206 19.7468C1.50259 19.6983 1.51642 19.651 1.54204 19.6099L11.826 2.10943C11.8448 2.07411 11.8728 2.04456 11.907 2.02393ZM13.473 1.34893C13.3246 1.09027 13.1105 0.875377 12.8524 0.725937C12.5942 0.576496 12.3013 0.497803 12.003 0.497803C11.7048 0.497803 11.4118 0.576496 11.1537 0.725937C10.8956 0.875377 10.6815 1.09027 10.533 1.34893L0.247541 18.8494C-0.437959 20.0164 0.384041 21.4999 1.71754 21.4999H22.287C23.6205 21.4999 24.444 20.0149 23.757 18.8494L13.473 1.34893Z" fill="white"/>
<path d="M10.5031 16.9999C10.5031 16.8029 10.5419 16.6079 10.6172 16.4259C10.6926 16.2439 10.8031 16.0786 10.9424 15.9393C11.0817 15.8 11.247 15.6895 11.429 15.6141C11.611 15.5387 11.8061 15.4999 12.0031 15.4999C12.2 15.4999 12.3951 15.5387 12.5771 15.6141C12.7591 15.6895 12.9244 15.8 13.0637 15.9393C13.203 16.0786 13.3135 16.2439 13.3889 16.4259C13.4643 16.6079 13.5031 16.8029 13.5031 16.9999C13.5031 17.3978 13.345 17.7793 13.0637 18.0606C12.7824 18.3419 12.4009 18.4999 12.0031 18.4999C11.6052 18.4999 11.2237 18.3419 10.9424 18.0606C10.6611 17.7793 10.5031 17.3978 10.5031 16.9999ZM10.6501 7.99243C10.6301 7.80319 10.6501 7.61187 10.7089 7.43087C10.7676 7.24988 10.8637 7.08325 10.991 6.94181C11.1183 6.80037 11.2739 6.68727 11.4478 6.60986C11.6216 6.53244 11.8098 6.49243 12.0001 6.49243C12.1903 6.49243 12.3785 6.53244 12.5523 6.60986C12.7262 6.68727 12.8818 6.80037 13.0091 6.94181C13.1364 7.08325 13.2325 7.24988 13.2913 7.43087C13.35 7.61187 13.37 7.80319 13.3501 7.99243L12.8251 13.2529C12.8074 13.4596 12.7129 13.6521 12.5601 13.7924C12.4073 13.9327 12.2075 14.0105 12.0001 14.0105C11.7926 14.0105 11.5928 13.9327 11.44 13.7924C11.2872 13.6521 11.1927 13.4596 11.1751 13.2529L10.6501 7.99243Z" fill="white"/>
</svg>
